<svg width="1734" height="570" viewBox="0 0 1734 570" fill="none" xmlns="http://www.w3.org/2000/svg">
<g opacity="0.6">
<path d="M1702.3 489.724L1702.3 478.342L1734 478.342L1734 508.607L1722.17 508.607L1722.17 489.724L1702.3 489.724Z" fill="white"/>
<path d="M1680.9 510.16L1680.9 498.864L1712.6 498.864L1712.6 529.043L1700.68 529.043L1700.68 510.16L1680.9 510.16Z" fill="white"/>
<path d="M1659.49 530.681L1659.49 519.299L1691.1 519.299L1691.1 549.564L1679.27 549.564L1679.27 530.681L1659.49 530.681Z" fill="white"/>
<path d="M1638 551.117L1638 539.735L1669.7 539.735L1669.7 570L1657.78 570L1657.78 551.117L1638 551.117Z" fill="white"/>
</g>
<g clip-path="url(#clip0_2606_334)">
<path d="M1052.08 29.4633C1052.08 30.5751 1051.21 31.409 1050.04 31.409C1048.87 31.409 1048 30.5751 1048 29.4633C1048 28.3515 1048.87 27.5176 1050.04 27.5176C1051.21 27.5176 1052.08 28.4441 1052.08 29.4633Z" fill="white"/>
<path d="M1069.47 29.4633C1069.47 30.5751 1068.6 31.409 1067.43 31.409C1066.26 31.409 1065.39 30.5751 1065.39 29.4633C1065.39 28.3515 1066.26 27.5176 1067.43 27.5176C1068.5 27.5176 1069.47 28.4441 1069.47 29.4633Z" fill="white"/>
<path d="M1086.76 29.4633C1086.76 30.5751 1085.89 31.409 1084.72 31.409C1083.56 31.409 1082.68 30.5751 1082.68 29.4633C1082.68 28.3515 1083.56 27.5176 1084.72 27.5176C1085.89 27.5176 1086.76 28.4441 1086.76 29.4633Z" fill="white"/>
<path d="M1104.15 29.4633C1104.15 30.5751 1103.28 31.409 1102.11 31.409C1100.94 31.409 1100.07 30.5751 1100.07 29.4633C1100.07 28.3515 1100.94 27.5176 1102.11 27.5176C1103.28 27.5176 1104.15 28.4441 1104.15 29.4633Z" fill="white"/>
<path d="M1121.54 29.4633C1121.54 30.5751 1120.67 31.409 1119.5 31.409C1118.33 31.409 1117.46 30.5751 1117.46 29.4633C1117.46 28.3515 1118.33 27.5176 1119.5 27.5176C1120.57 27.5176 1121.54 28.4441 1121.54 29.4633Z" fill="white"/>
<path d="M1138.93 29.4633C1138.93 30.5751 1138.06 31.409 1136.89 31.409C1135.72 31.409 1134.85 30.5751 1134.85 29.4633C1134.85 28.3515 1135.72 27.5176 1136.89 27.5176C1138.06 27.5176 1138.93 28.4441 1138.93 29.4633Z" fill="white"/>
<path d="M1156.22 29.4633C1156.22 30.5751 1155.35 31.409 1154.18 31.409C1153.02 31.409 1152.14 30.5751 1152.14 29.4633C1152.14 28.3515 1153.02 27.5176 1154.18 27.5176C1155.35 27.5176 1156.22 28.4441 1156.22 29.4633Z" fill="white"/>
<path d="M1173.61 29.4633C1173.61 30.5751 1172.74 31.409 1171.57 31.409C1170.4 31.409 1169.53 30.5751 1169.53 29.4633C1169.53 28.3515 1170.4 27.5176 1171.57 27.5176C1172.74 27.5176 1173.61 28.4441 1173.61 29.4633Z" fill="white"/>
<path d="M1191 29.4633C1191 30.5751 1190.13 31.409 1188.96 31.409C1187.79 31.409 1186.92 30.5751 1186.92 29.4633C1186.92 28.3515 1187.79 27.5176 1188.96 27.5176C1190.03 27.5176 1191 28.4441 1191 29.4633Z" fill="white"/>
<path d="M1052.08 43.2699C1052.08 44.3818 1051.21 45.2157 1050.04 45.2157C1048.87 45.2157 1048 44.3818 1048 43.2699C1048 42.1581 1048.87 41.3242 1050.04 41.3242C1051.21 41.3242 1052.08 42.1581 1052.08 43.2699Z" fill="white"/>
<path d="M1069.47 43.2699C1069.47 44.3818 1068.6 45.2157 1067.43 45.2157C1066.26 45.2157 1065.39 44.3818 1065.39 43.2699C1065.39 42.1581 1066.26 41.3242 1067.43 41.3242C1068.5 41.3242 1069.47 42.1581 1069.47 43.2699Z" fill="white"/>
<path d="M1086.76 43.2699C1086.76 44.3818 1085.89 45.2157 1084.72 45.2157C1083.56 45.2157 1082.68 44.3818 1082.68 43.2699C1082.68 42.1581 1083.56 41.3242 1084.72 41.3242C1085.89 41.3242 1086.76 42.1581 1086.76 43.2699Z" fill="white"/>
<path d="M1104.15 43.2699C1104.15 44.3818 1103.28 45.2157 1102.11 45.2157C1100.94 45.2157 1100.07 44.3818 1100.07 43.2699C1100.07 42.1581 1100.94 41.3242 1102.11 41.3242C1103.28 41.3242 1104.15 42.1581 1104.15 43.2699Z" fill="white"/>
<path d="M1121.54 43.2699C1121.54 44.3818 1120.67 45.2157 1119.5 45.2157C1118.33 45.2157 1117.46 44.3818 1117.46 43.2699C1117.46 42.1581 1118.33 41.3242 1119.5 41.3242C1120.57 41.3242 1121.54 42.1581 1121.54 43.2699Z" fill="white"/>
<path d="M1138.93 43.2699C1138.93 44.3818 1138.06 45.2157 1136.89 45.2157C1135.72 45.2157 1134.85 44.3818 1134.85 43.2699C1134.85 42.1581 1135.72 41.3242 1136.89 41.3242C1138.06 41.3242 1138.93 42.1581 1138.93 43.2699Z" fill="white"/>
<path d="M1156.22 43.2699C1156.22 44.3818 1155.35 45.2157 1154.18 45.2157C1153.02 45.2157 1152.14 44.3818 1152.14 43.2699C1152.14 42.1581 1153.02 41.3242 1154.18 41.3242C1155.35 41.3242 1156.22 42.1581 1156.22 43.2699Z" fill="white"/>
<path d="M1173.61 43.2699C1173.61 44.3818 1172.74 45.2157 1171.57 45.2157C1170.4 45.2157 1169.53 44.3818 1169.53 43.2699C1169.53 42.1581 1170.4 41.3242 1171.57 41.3242C1172.74 41.3242 1173.61 42.1581 1173.61 43.2699Z" fill="white"/>
<path d="M1191 43.2699C1191 44.3818 1190.13 45.2157 1188.96 45.2157C1187.79 45.2157 1186.92 44.3818 1186.92 43.2699C1186.92 42.1581 1187.79 41.3242 1188.96 41.3242C1190.03 41.3242 1191 42.1581 1191 43.2699Z" fill="white"/>
<path d="M1052.08 1.94573C1052.08 3.05757 1051.21 3.89145 1050.04 3.89145C1048.87 3.89145 1048 3.05757 1048 1.94573C1048 0.833883 1048.87 0 1050.04 0C1051.21 0 1052.08 0.833883 1052.08 1.94573Z" fill="white"/>
<path d="M1069.47 1.94573C1069.47 3.05757 1068.6 3.89145 1067.43 3.89145C1066.26 3.89145 1065.39 3.05757 1065.39 1.94573C1065.39 0.833883 1066.26 0 1067.43 0C1068.5 0 1069.47 0.833883 1069.47 1.94573Z" fill="white"/>
<path d="M1086.76 1.94573C1086.76 3.05757 1085.89 3.89145 1084.72 3.89145C1083.56 3.89145 1082.68 3.05757 1082.68 1.94573C1082.68 0.833883 1083.65 0 1084.72 0C1085.89 0 1086.76 0.833883 1086.76 1.94573Z" fill="white"/>
<path d="M1104.15 1.94573C1104.15 3.05757 1103.28 3.89145 1102.11 3.89145C1100.94 3.89145 1100.07 3.05757 1100.07 1.94573C1100.07 0.833883 1101.04 0 1102.11 0C1103.18 0 1104.15 0.833883 1104.15 1.94573Z" fill="white"/>
<path d="M1121.54 1.94573C1121.54 3.05757 1120.67 3.89145 1119.5 3.89145C1118.33 3.89145 1117.46 3.05757 1117.46 1.94573C1117.46 0.833883 1118.33 0 1119.5 0C1120.57 0 1121.54 0.833883 1121.54 1.94573Z" fill="white"/>
<path d="M1138.93 1.94573C1138.93 3.05757 1138.06 3.89145 1136.89 3.89145C1135.72 3.89145 1134.85 3.05757 1134.85 1.94573C1134.85 0.833883 1135.72 0 1136.89 0C1138.06 0 1138.93 0.833883 1138.93 1.94573Z" fill="white"/>
<path d="M1156.22 1.94573C1156.22 3.05757 1155.35 3.89145 1154.18 3.89145C1153.02 3.89145 1152.14 3.05757 1152.14 1.94573C1152.14 0.833883 1153.02 0 1154.18 0C1155.35 0 1156.22 0.833883 1156.22 1.94573Z" fill="white"/>
<path d="M1173.61 1.94573C1173.61 3.05757 1172.74 3.89145 1171.57 3.89145C1170.4 3.89145 1169.53 3.05757 1169.53 1.94573C1169.53 0.833883 1170.4 0 1171.57 0C1172.74 0 1173.61 0.833883 1173.61 1.94573Z" fill="white"/>
<path d="M1191 1.94573C1191 3.05757 1190.13 3.89145 1188.96 3.89145C1187.79 3.89145 1186.92 3.05757 1186.92 1.94573C1186.92 0.833883 1187.79 0 1188.96 0C1190.03 0 1191 0.833883 1191 1.94573Z" fill="white"/>
<path d="M1052.08 15.7504C1052.08 16.8623 1051.21 17.6961 1050.04 17.6961C1048.87 17.6961 1048 16.7696 1048 15.7504C1048 14.6386 1048.87 13.8047 1050.04 13.8047C1051.21 13.8047 1052.08 14.6386 1052.08 15.7504Z" fill="white"/>
<path d="M1069.47 15.7504C1069.47 16.8623 1068.6 17.6961 1067.43 17.6961C1066.26 17.6961 1065.39 16.8623 1065.39 15.7504C1065.39 14.6386 1066.26 13.8047 1067.43 13.8047C1068.5 13.8047 1069.47 14.6386 1069.47 15.7504Z" fill="white"/>
<path d="M1086.76 15.7504C1086.76 16.8623 1085.89 17.6961 1084.72 17.6961C1083.56 17.6961 1082.68 16.8623 1082.68 15.7504C1082.68 14.6386 1083.56 13.8047 1084.72 13.8047C1085.89 13.8047 1086.76 14.6386 1086.76 15.7504Z" fill="white"/>
<path d="M1104.15 15.7504C1104.15 16.8623 1103.28 17.6961 1102.11 17.6961C1100.94 17.6961 1100.07 16.8623 1100.07 15.7504C1100.07 14.6386 1100.94 13.8047 1102.11 13.8047C1103.28 13.8047 1104.15 14.6386 1104.15 15.7504Z" fill="white"/>
<path d="M1121.54 15.7504C1121.54 16.8623 1120.67 17.6961 1119.5 17.6961C1118.33 17.6961 1117.46 16.8623 1117.46 15.7504C1117.46 14.6386 1118.33 13.8047 1119.5 13.8047C1120.57 13.8047 1121.54 14.6386 1121.54 15.7504Z" fill="white"/>
<path d="M1138.93 15.7504C1138.93 16.8623 1138.06 17.6961 1136.89 17.6961C1135.72 17.6961 1134.85 16.8623 1134.85 15.7504C1134.85 14.6386 1135.72 13.8047 1136.89 13.8047C1138.06 13.8047 1138.93 14.6386 1138.93 15.7504Z" fill="white"/>
<path d="M1156.22 15.7504C1156.22 16.8623 1155.35 17.6961 1154.18 17.6961C1153.02 17.6961 1152.14 16.8623 1152.14 15.7504C1152.14 14.6386 1153.02 13.8047 1154.18 13.8047C1155.35 13.8047 1156.22 14.6386 1156.22 15.7504Z" fill="white"/>
<path d="M1173.61 15.7504C1173.61 16.8623 1172.74 17.6961 1171.57 17.6961C1170.4 17.6961 1169.53 16.8623 1169.53 15.7504C1169.53 14.6386 1170.4 13.8047 1171.57 13.8047C1172.74 13.8047 1173.61 14.6386 1173.61 15.7504Z" fill="white"/>
<path d="M1191 15.7504C1191 16.8623 1190.13 17.6961 1188.96 17.6961C1187.79 17.6961 1186.92 16.8623 1186.92 15.7504C1186.92 14.6386 1187.79 13.8047 1188.96 13.8047C1190.03 13.8047 1191 14.6386 1191 15.7504Z" fill="white"/>
<path d="M1052.08 56.9828C1052.08 58.0947 1051.21 58.9286 1050.04 58.9286C1048.87 58.9286 1048 58.0947 1048 56.9828C1048 55.871 1048.87 55.0371 1050.04 55.0371C1051.21 55.0371 1052.08 55.9636 1052.08 56.9828Z" fill="white"/>
<path d="M1069.47 56.9828C1069.47 58.0947 1068.6 58.9286 1067.43 58.9286C1066.26 58.9286 1065.39 58.0947 1065.39 56.9828C1065.39 55.871 1066.26 55.0371 1067.43 55.0371C1068.5 55.0371 1069.47 55.9636 1069.47 56.9828Z" fill="white"/>
<path d="M1086.76 56.9828C1086.76 58.0947 1085.89 58.9286 1084.72 58.9286C1083.56 58.9286 1082.68 58.0947 1082.68 56.9828C1082.68 55.871 1083.56 55.0371 1084.72 55.0371C1085.89 55.0371 1086.76 55.9636 1086.76 56.9828Z" fill="white"/>
<path d="M1104.15 56.9828C1104.15 58.0947 1103.28 58.9286 1102.11 58.9286C1100.94 58.9286 1100.07 58.0947 1100.07 56.9828C1100.07 55.871 1100.94 55.0371 1102.11 55.0371C1103.28 55.0371 1104.15 55.9636 1104.15 56.9828Z" fill="white"/>
<path d="M1121.54 56.9828C1121.54 58.0947 1120.67 58.9286 1119.5 58.9286C1118.33 58.9286 1117.46 58.0947 1117.46 56.9828C1117.46 55.871 1118.33 55.0371 1119.5 55.0371C1120.57 55.0371 1121.54 55.9636 1121.54 56.9828Z" fill="white"/>
<path d="M1138.93 56.9828C1138.93 58.0947 1138.06 58.9286 1136.89 58.9286C1135.72 58.9286 1134.85 58.0947 1134.85 56.9828C1134.85 55.871 1135.72 55.0371 1136.89 55.0371C1138.06 55.0371 1138.93 55.9636 1138.93 56.9828Z" fill="white"/>
<path d="M1156.22 56.9828C1156.22 58.0947 1155.35 58.9286 1154.18 58.9286C1153.02 58.9286 1152.14 58.0947 1152.14 56.9828C1152.14 55.871 1153.02 55.0371 1154.18 55.0371C1155.35 55.0371 1156.22 55.9636 1156.22 56.9828Z" fill="white"/>
<path d="M1173.61 56.9828C1173.61 58.0947 1172.74 58.9286 1171.57 58.9286C1170.4 58.9286 1169.53 58.0947 1169.53 56.9828C1169.53 55.871 1170.4 55.0371 1171.57 55.0371C1172.74 55.0371 1173.61 55.9636 1173.61 56.9828Z" fill="white"/>
<path d="M1191 56.9828C1191 58.0947 1190.13 58.9286 1188.96 58.9286C1187.79 58.9286 1186.92 58.0947 1186.92 56.9828C1186.92 55.871 1187.79 55.0371 1188.96 55.0371C1190.03 55.0371 1191 55.9636 1191 56.9828Z" fill="white"/>
<path d="M1052.08 70.7875C1052.08 71.8994 1051.21 72.7332 1050.04 72.7332C1048.87 72.7332 1048 71.8994 1048 70.7875C1048 69.6757 1048.87 68.8418 1050.04 68.8418C1051.21 68.8418 1052.08 69.6757 1052.08 70.7875Z" fill="white"/>
<path d="M1069.47 70.7875C1069.47 71.8994 1068.6 72.7332 1067.43 72.7332C1066.26 72.7332 1065.39 71.8994 1065.39 70.7875C1065.39 69.6757 1066.26 68.8418 1067.43 68.8418C1068.5 68.8418 1069.47 69.6757 1069.47 70.7875Z" fill="white"/>
<path d="M1086.76 70.7875C1086.76 71.8994 1085.89 72.7332 1084.72 72.7332C1083.56 72.7332 1082.68 71.8994 1082.68 70.7875C1082.68 69.6757 1083.56 68.8418 1084.72 68.8418C1085.89 68.8418 1086.76 69.6757 1086.76 70.7875Z" fill="white"/>
<path d="M1102.11 72.7332C1103.24 72.7332 1104.15 71.8621 1104.15 70.7875C1104.15 69.7129 1103.24 68.8418 1102.11 68.8418C1100.98 68.8418 1100.07 69.7129 1100.07 70.7875C1100.07 71.8621 1100.98 72.7332 1102.11 72.7332Z" fill="white"/>
<path d="M1121.54 70.7875C1121.54 71.8994 1120.67 72.7332 1119.5 72.7332C1118.33 72.7332 1117.46 71.8994 1117.46 70.7875C1117.46 69.6757 1118.33 68.8418 1119.5 68.8418C1120.57 68.8418 1121.54 69.6757 1121.54 70.7875Z" fill="white"/>
<path d="M1138.93 70.7875C1138.93 71.8994 1138.06 72.7332 1136.89 72.7332C1135.72 72.7332 1134.85 71.8994 1134.85 70.7875C1134.85 69.6757 1135.72 68.8418 1136.89 68.8418C1138.06 68.8418 1138.93 69.6757 1138.93 70.7875Z" fill="white"/>
<path d="M1156.22 70.7875C1156.22 71.8994 1155.35 72.7332 1154.18 72.7332C1153.02 72.7332 1152.14 71.8994 1152.14 70.7875C1152.14 69.6757 1153.02 68.8418 1154.18 68.8418C1155.35 68.8418 1156.22 69.6757 1156.22 70.7875Z" fill="white"/>
<path d="M1171.57 72.7332C1172.7 72.7332 1173.61 71.8621 1173.61 70.7875C1173.61 69.7129 1172.7 68.8418 1171.57 68.8418C1170.44 68.8418 1169.53 69.7129 1169.53 70.7875C1169.53 71.8621 1170.44 72.7332 1171.57 72.7332Z" fill="white"/>
<path d="M1191 70.7875C1191 71.8994 1190.13 72.7332 1188.96 72.7332C1187.79 72.7332 1186.92 71.8994 1186.92 70.7875C1186.92 69.6757 1187.79 68.8418 1188.96 68.8418C1190.03 68.8418 1191 69.6757 1191 70.7875Z" fill="white"/>
<path d="M1052.08 84.5922C1052.08 85.7041 1051.21 86.5379 1050.04 86.5379C1048.87 86.5379 1048 85.7041 1048 84.5922C1048 83.4804 1048.87 82.6465 1050.04 82.6465C1051.21 82.6465 1052.08 83.4804 1052.08 84.5922Z" fill="white"/>
<path d="M1069.47 84.5922C1069.47 85.7041 1068.6 86.5379 1067.43 86.5379C1066.26 86.5379 1065.39 85.7041 1065.39 84.5922C1065.39 83.4804 1066.26 82.6465 1067.43 82.6465C1068.5 82.6465 1069.47 83.4804 1069.47 84.5922Z" fill="white"/>
<path d="M1086.76 84.5922C1086.76 85.7041 1085.89 86.5379 1084.72 86.5379C1083.56 86.5379 1082.68 85.7041 1082.68 84.5922C1082.68 83.4804 1083.56 82.6465 1084.72 82.6465C1085.89 82.6465 1086.76 83.4804 1086.76 84.5922Z" fill="white"/>
<path d="M1104.15 84.5922C1104.15 85.7041 1103.28 86.5379 1102.11 86.5379C1100.94 86.5379 1100.07 85.7041 1100.07 84.5922C1100.07 83.4804 1100.94 82.6465 1102.11 82.6465C1103.28 82.6465 1104.15 83.4804 1104.15 84.5922Z" fill="white"/>
<path d="M1121.54 84.5922C1121.54 85.7041 1120.67 86.5379 1119.5 86.5379C1118.33 86.5379 1117.46 85.7041 1117.46 84.5922C1117.46 83.4804 1118.33 82.6465 1119.5 82.6465C1120.57 82.6465 1121.54 83.4804 1121.54 84.5922Z" fill="white"/>
<path d="M1138.93 84.5922C1138.93 85.7041 1138.06 86.5379 1136.89 86.5379C1135.72 86.5379 1134.85 85.7041 1134.85 84.5922C1134.85 83.4804 1135.72 82.6465 1136.89 82.6465C1138.06 82.6465 1138.93 83.4804 1138.93 84.5922Z" fill="white"/>
<path d="M1156.22 84.5922C1156.22 85.7041 1155.35 86.5379 1154.18 86.5379C1153.02 86.5379 1152.14 85.7041 1152.14 84.5922C1152.14 83.4804 1153.02 82.6465 1154.18 82.6465C1155.35 82.6465 1156.22 83.4804 1156.22 84.5922Z" fill="white"/>
<path d="M1173.61 84.5922C1173.61 85.7041 1172.74 86.5379 1171.57 86.5379C1170.4 86.5379 1169.53 85.7041 1169.53 84.5922C1169.53 83.4804 1170.4 82.6465 1171.57 82.6465C1172.74 82.6465 1173.61 83.4804 1173.61 84.5922Z" fill="white"/>
<path d="M1191 84.5922C1191 85.7041 1190.13 86.5379 1188.96 86.5379C1187.79 86.5379 1186.92 85.7041 1186.92 84.5922C1186.92 83.4804 1187.79 82.6465 1188.96 82.6465C1190.03 82.6465 1191 83.4804 1191 84.5922Z" fill="white"/>
<path d="M1052.08 98.3051C1052.08 99.417 1051.21 100.251 1050.04 100.251C1048.87 100.251 1048 99.417 1048 98.3051C1048 97.1933 1048.87 96.3594 1050.04 96.3594C1051.21 96.3594 1052.08 97.2859 1052.08 98.3051Z" fill="white"/>
<path d="M1069.47 98.3051C1069.47 99.417 1068.6 100.251 1067.43 100.251C1066.26 100.251 1065.39 99.417 1065.39 98.3051C1065.39 97.1933 1066.26 96.3594 1067.43 96.3594C1068.5 96.3594 1069.47 97.2859 1069.47 98.3051Z" fill="white"/>
<path d="M1086.76 98.3051C1086.76 99.417 1085.89 100.251 1084.72 100.251C1083.56 100.251 1082.68 99.417 1082.68 98.3051C1082.68 97.1933 1083.56 96.3594 1084.72 96.3594C1085.89 96.3594 1086.76 97.2859 1086.76 98.3051Z" fill="white"/>
<path d="M1104.15 98.3051C1104.15 99.417 1103.28 100.251 1102.11 100.251C1100.94 100.251 1100.07 99.417 1100.07 98.3051C1100.07 97.1933 1100.94 96.3594 1102.11 96.3594C1103.28 96.3594 1104.15 97.2859 1104.15 98.3051Z" fill="white"/>
<path d="M1121.54 98.3051C1121.54 99.417 1120.67 100.251 1119.5 100.251C1118.33 100.251 1117.46 99.417 1117.46 98.3051C1117.46 97.1933 1118.33 96.3594 1119.5 96.3594C1120.57 96.3594 1121.54 97.2859 1121.54 98.3051Z" fill="white"/>
<path d="M1138.93 98.3051C1138.93 99.417 1138.06 100.251 1136.89 100.251C1135.72 100.251 1134.85 99.417 1134.85 98.3051C1134.85 97.1933 1135.72 96.3594 1136.89 96.3594C1138.06 96.3594 1138.93 97.2859 1138.93 98.3051Z" fill="white"/>
<path d="M1156.22 98.3051C1156.22 99.417 1155.35 100.251 1154.18 100.251C1153.02 100.251 1152.14 99.417 1152.14 98.3051C1152.14 97.1933 1153.02 96.3594 1154.18 96.3594C1155.35 96.3594 1156.22 97.2859 1156.22 98.3051Z" fill="white"/>
<path d="M1173.61 98.3051C1173.61 99.417 1172.74 100.251 1171.57 100.251C1170.4 100.251 1169.53 99.417 1169.53 98.3051C1169.53 97.1933 1170.4 96.3594 1171.57 96.3594C1172.74 96.3594 1173.61 97.2859 1173.61 98.3051Z" fill="white"/>
<path d="M1191 98.3051C1191 99.417 1190.13 100.251 1188.96 100.251C1187.79 100.251 1186.92 99.417 1186.92 98.3051C1186.92 97.1933 1187.79 96.3594 1188.96 96.3594C1190.03 96.3594 1191 97.2859 1191 98.3051Z" fill="white"/>
</g>
<path opacity="0.6" d="M41 78.2716C31.6376 87.2106 16.3842 87.2106 7.02181 78.2716C-2.3406 69.3326 -2.3406 54.7691 7.02181 45.8301L41 78.2716Z" fill="white"/>
<defs>
<clipPath id="clip0_2606_334">
<rect width="143" height="100.251" fill="white" transform="translate(1048)"/>
</clipPath>
</defs>
</svg>
